<svg xmlns="http://www.w3.org/2000/svg" viewBox="0 0 512 512">
  <defs>
    <linearGradient id="heartGrad" x1="0%" y1="0%" x2="100%" y2="100%">
      <stop offset="0%" style="stop-color:#ff6b9d;stop-opacity:1" />
      <stop offset="100%" style="stop-color:#c44dff;stop-opacity:1" />
    </linearGradient>
  </defs>
  <circle cx="256" cy="256" r="256" fill="#050510"/>
  <path d="M256 420c-8 0-16-3-22-9C148 332 100 272 100 212c0-44 36-80 78-80 26 0 50 12 66 32 4 5 12 5 16-1 15-19 38-31 62-31 44 0 78 36 78 80 0 60-48 120-134 199-6 6-14 9-22 9h2z" fill="url(#heartGrad)" opacity="0.9"/>
</svg>
